<?xml version="1.0" encoding="iso-8859-1"?>
<!-- Uploaded to: SVG Repo, www.svgrepo.com, Generator: SVG Repo Mixer Tools -->
<svg fill="#000000" height="800px" width="800px" version="1.1" id="Layer_1" xmlns="http://www.w3.org/2000/svg" xmlns:xlink="http://www.w3.org/1999/xlink" 
	 viewBox="0 0 512 512" xml:space="preserve">
<g>
	<g>
		<path d="M362.482,127.64c4.234-1.91,12.703-7.943,12.703-20.425c0-15.137-11.365-22.668-20.176-22.668h-49.193v88.425h43.091
			c26.877,0,30.014-16.605,30.014-22.666C378.921,134.14,367.545,129.135,362.482,127.64z M326.241,101.985h20.798
			c3.981,0,7.846,3.066,7.846,9.09c0,6.401-4.154,9.216-8.593,9.216h-20.051V101.985z M348.907,155.662h-22.666v-19.304h23.538
			c4.254,0,8.344,3.707,8.344,9.839C358.123,152.129,353.687,155.662,348.907,155.662z"/>
	</g>
</g>
<g>
	<g>
		<path d="M348.202,211.719h-18.431l-32.257,88.424h20.923l6.725-19.802h27.523l6.85,19.803h20.923L348.202,211.719z
			 M328.401,266.268l10.586-31.26l10.337,31.26H328.401z"/>
	</g>
</g>
<g>
	<g>
		<path d="M360.116,394.572c2.242-1.245,14.447-8.496,14.447-25.654c0-11.556-9.244-29.891-28.893-29.891h-39.853v88.424h20.425
			v-28.518h13.326l16.938,28.518h23.04L360.116,394.572z M344.922,381.122h-18.681v-24.159h18.058c4.068,0,9.465,3.859,9.465,11.956
			C353.763,377.139,348.945,381.122,344.922,381.122z"/>
	</g>
</g>
<g>
	<g>
		<path d="M207.568,0v83.027h-45.084c-8.568-24.159-31.64-41.514-58.7-41.514c-34.336,0-62.27,27.934-62.27,62.27
			c0,34.336,27.934,62.27,62.27,62.27c27.06,0,50.132-17.354,58.7-41.514h45.084v262.919h-45.084
			c-8.568-24.159-31.64-41.513-58.7-41.513c-34.336,0-62.27,27.934-62.27,62.27s27.934,62.27,62.27,62.27
			c27.06,0,50.132-17.354,58.7-41.514h45.084V512h262.919V0H207.568z M103.784,124.541c-11.445,0-20.757-9.311-20.757-20.757
			c0-11.445,9.311-20.757,20.757-20.757c11.445,0,20.757,9.311,20.757,20.757C124.541,115.229,115.229,124.541,103.784,124.541z
			 M103.784,428.973c-11.445,0-20.757-9.311-20.757-20.757c0-11.445,9.311-20.757,20.757-20.757
			c11.445,0,20.757,9.311,20.757,20.757C124.541,419.661,115.229,428.973,103.784,428.973z M428.973,470.487H249.081V41.513h179.892
			V470.487z"/>
	</g>
</g>
</svg>